<svg width="75" height="75" fill="none" xmlns="http://www.w3.org/2000/svg"><path d="M52.055 57.683v.166l.152.064 18.684 7.95a6.331 6.331 0 013.858 5.833l.001 1.106s0 0 0 0a1.949 1.949 0 01-1.947 1.947H2.197a1.947 1.947 0 01-1.376-.57h0a1.946 1.946 0 01-.571-1.377v-1.105a6.333 6.333 0 013.86-5.835l-.098-.23.098.23 18.683-7.949.152-.064v-4.911l-.055-.069a17.175 17.175 0 01-3.595-8.493l-.029-.218h-4.039a6.35 6.35 0 01-6.341-6.342v-9.45c0-3.196 2.379-5.848 5.46-6.279l.208-.029.007-.21c.236-7.104 2.338-12.493 6.174-16.107C24.572 2.125 30.18.25 37.5.25s12.928 1.875 16.765 5.49c3.836 3.615 5.938 9.004 6.174 16.108l.007.21.209.03c3.08.43 5.46 3.082 5.46 6.278v9.45a6.35 6.35 0 01-6.342 6.342h-4.04l-.028.218a17.18 17.18 0 01-3.595 8.493l-.055.069v4.745zm-3.892 1.534h0v-.006a1.247 1.247 0 01-.002-.075v-2.629l-.384.242c-2.967 1.877-6.509 2.888-10.277 2.888-3.768 0-7.31-1.01-10.277-2.888l-.384-.242v2.629c0 .027 0 .05-.002.075h0v.008h0c-.001.045-.035 1.408.331 3.18.368 1.776 1.143 3.988 2.783 5.685l.18-.174-.18.174c1.788 1.849 4.34 2.77 7.549 2.77 3.22 0 5.78-.928 7.568-2.79l-.18-.173.18.173c1.621-1.688 2.392-3.894 2.759-5.666.368-1.775.337-3.142.336-3.181zm3.692-17.974l.11-.074V24.2l-.006-.03c-1.249-5.154-2.812-7.003-3.994-7.62-.817-.426-1.757-.409-2.733-.196-.97.212-2.017.628-3.068 1.045l-.011.005c-1.641.651-3.134 1.24-4.653 1.24-1.505 0-3.018-.583-4.678-1.228 0 0 0 0 0 0l-.015-.005c-1.049-.408-2.14-.832-3.16-1.049-1.02-.218-2.017-.239-2.848.213-.823.446-1.544 1.345-2.165 2.61-.623 1.27-1.159 2.939-1.594 4.964l-.006.026v17.84c0 7.833 6.236 13.726 14.466 13.726 6.356 0 11.525-3.514 13.548-8.734l.286-.737-.658.438-.84.561h0a12.154 12.154 0 01-6.77 2.05H39.35a1.947 1.947 0 010-3.894h3.716a8.277 8.277 0 004.608-1.395l4.18-2.788zm4.005-1.23v.25h3.913a2.45 2.45 0 002.447-2.447v-9.45a2.45 2.45 0 00-2.447-2.447H55.86v14.095zM22.432 9.616l.19.162-.19-.162c-2.444 2.87-3.767 6.963-3.97 12.15l-.01.26h1.086l.049-.188c1.185-4.567 2.96-7.385 5.354-8.685 3.18-1.725 6.506-.447 9.29.635h0l.005.002c.597.231 1.212.47 1.77.651.555.18 1.082.311 1.493.311.41 0 .93-.132 1.475-.312.549-.18 1.151-.42 1.735-.652l.005-.002h0c2.689-1.069 5.9-2.33 9.052-.687 2.473 1.29 4.288 4.055 5.608 8.744l.051.183h1.124l-.01-.26c-.205-5.187-1.527-9.28-3.971-12.15l-.19.162.19-.162c-3.11-3.649-8.2-5.47-15.068-5.47s-11.959 1.821-15.068 5.47zM19.14 26.17v-.25h-3.913a2.45 2.45 0 00-2.447 2.447v9.45a2.45 2.45 0 002.447 2.448h3.913V26.169zm4.053 36.143l-.05-.315-.294.125-17.215 7.324a2.442 2.442 0 00-1.166 1.035l-.214.374h22.944l-.373-.417c-2.304-2.574-3.25-5.766-3.632-8.126zm24.982 8.126l-.373.417h22.944l-.214-.374a2.445 2.445 0 00-1.166-1.035l-17.215-7.324-.293-.125-.051.315c-.382 2.36-1.328 5.552-3.632 8.126z" fill="#A01818" stroke="#fff" stroke-width=".5"/></svg>