<svg width="107" height="75" fill="none" xmlns="http://www.w3.org/2000/svg"><g clip-path="url(#clip0_282_2099)" fill="#A01818" stroke="#fff" stroke-width=".5"><path d="M67.574 61.103c0-7.3 5.939-13.238 13.238-13.238 7.299 0 13.237 5.939 13.237 13.238 0 7.299-5.937 13.237-13.237 13.237s-13.238-5.938-13.238-13.237zm6.244 0a7 7 0 006.994 6.994 7 7 0 006.993-6.994 7 7 0 00-6.993-6.994 7 7 0 00-6.994 6.994zm-52.324 0c0-7.3 5.939-13.238 13.238-13.238 7.299 0 13.237 5.939 13.237 13.238 0 7.299-5.938 13.237-13.237 13.237-7.3 0-13.238-5.938-13.238-13.237zm6.244 0a7 7 0 006.994 6.994 7 7 0 006.993-6.994 7.001 7.001 0 00-6.993-6.994 7 7 0 00-6.994 6.994zm57.287-47.318l-.069-.138H69.373V7.403h17.508c1.18 0 2.26.665 2.79 1.72l10.004 19.895-5.58 2.805-9.07-18.038z"/><path d="M45.434 64.337v-6.243h25.013v6.243H45.434zm-32.508-6.243h11.69a3.122 3.122 0 110 6.243h-11.69a3.121 3.121 0 110-6.243zm86.537-29.253h0l6.632 8.542c.425.548.656 1.222.656 1.915v21.917a3.122 3.122 0 01-3.122 3.122h-12.7a3.122 3.122 0 110-6.244h9.578V40.368l-.052-.068-4.91-6.325-.076-.097H69.124a3.121 3.121 0 01-3.122-3.122V6.903H12.926a3.122 3.122 0 110-6.243h56.198a3.122 3.122 0 013.122 3.121v23.853h24.752c.965 0 1.875.446 2.465 1.207zM8.878 41.01h15.51a3.121 3.121 0 110 6.243H8.878a3.121 3.121 0 110-6.243zM3.372 27.747h28.773a3.122 3.122 0 110 6.243H3.372a3.122 3.122 0 110-6.243z"/><path d="M8.878 14.484H37.65a3.121 3.121 0 110 6.244H8.878a3.122 3.122 0 110-6.244z"/></g><defs><clipPath id="clip0_282_2099"><path fill="#fff" d="M0 0h107v75H0z"/></clipPath></defs></svg>