<svg width="75" height="75" fill="none" xmlns="http://www.w3.org/2000/svg"><g clip-path="url(#clip0_282_2127)" fill="#A01818"><path d="M30.818 36.422a4.38 4.38 0 01-3.107-1.285 4.4 4.4 0 010-6.215 4.4 4.4 0 016.215 0 4.4 4.4 0 010 6.215 4.381 4.381 0 01-3.108 1.285zm0-5.857c-.391 0-.759.152-1.036.429a1.455 1.455 0 00-.429 1.036c0 .39.153.759.43 1.035.276.277.644.43 1.035.43.391 0 .76-.153 1.036-.43.277-.276.43-.644.43-1.035 0-.392-.153-.76-.43-1.036a1.455 1.455 0 00-1.036-.43zm13.363 19.221a4.38 4.38 0 01-3.107-1.285 4.4 4.4 0 010-6.215 4.4 4.4 0 016.215 0 4.4 4.4 0 010 6.215 4.381 4.381 0 01-3.108 1.285zm0-5.857c-.39 0-.759.152-1.035.429-.277.276-.43.644-.43 1.036 0 .39.153.759.43 1.035.276.277.644.43 1.035.43.392 0 .76-.153 1.036-.43.277-.276.43-.644.43-1.035 0-.392-.153-.76-.43-1.036a1.455 1.455 0 00-1.036-.43zM29.736 47.94a1.465 1.465 0 01-1.036-2.5l15.528-15.528a1.465 1.465 0 012.072 2.072L30.772 47.51a1.46 1.46 0 01-1.036.43z"/><path d="M37.5 75c-.12 0-.24-.015-.356-.044-5.044-1.263-12.432-4.052-18.984-10.164-5.683-5.302-8.471-11.069-9.81-14.973a16.327 16.327 0 01-.88-5.306V16.49c0-.874.628-1.605 1.492-1.737 5.874-.903 11.397-2.78 16.415-5.58C29.571 6.831 33.286 3.905 36.42.476a1.464 1.464 0 012.163 0c3.133 3.43 6.847 6.355 11.04 8.695 5.019 2.8 10.542 4.678 16.416 5.58a1.75 1.75 0 011.491 1.738v9.038a1.465 1.465 0 01-2.93 0v-8.042c-5.85-1.009-11.365-2.943-16.404-5.756C44.198 9.5 40.607 6.768 37.5 3.596 34.393 6.768 30.801 9.5 26.805 11.73c-5.04 2.813-10.554 4.747-16.405 5.756v27.027c0 1.494.243 2.96.722 4.356 1.23 3.588 3.796 8.891 9.037 13.78 5.943 5.544 12.645 8.154 17.341 9.374 4.696-1.22 11.399-3.83 17.341-9.373 5.24-4.89 7.807-10.193 9.037-13.78.479-1.397.722-2.863.722-4.357v-5.801a1.465 1.465 0 012.93 0v5.801c0 1.818-.297 3.603-.88 5.306-1.339 3.904-4.127 9.671-9.81 14.973-6.552 6.112-13.94 8.9-18.984 10.164-.117.03-.236.044-.356.044z"/><path d="M66.064 33.585a1.465 1.465 0 100-2.93 1.465 1.465 0 000 2.93zM37.5 68.93c-.138 0-.277-.02-.41-.059-3.964-1.158-9.772-3.549-14.933-8.364-4.798-4.476-7.142-9.316-8.264-12.588a10.476 10.476 0 01-.563-3.406V21.298c0-.813.552-1.515 1.342-1.707a54.041 54.041 0 0013.56-5.302 50.676 50.676 0 008.313-5.79 1.465 1.465 0 011.91.001 50.696 50.696 0 008.312 5.789 54.034 54.034 0 0013.561 5.302c.79.192 1.342.894 1.342 1.707v23.215c0 1.17-.19 2.317-.564 3.406-1.12 3.272-3.465 8.112-8.263 12.589-5.162 4.815-10.97 7.205-14.932 8.363a1.47 1.47 0 01-.411.059zM16.26 22.212v22.301c0 .846.136 1.673.405 2.456 1.013 2.956 3.135 7.333 7.49 11.396 4.567 4.26 9.704 6.46 13.345 7.571 3.641-1.11 8.778-3.311 13.344-7.57 4.356-4.064 6.478-8.44 7.491-11.397.27-.783.405-1.61.405-2.456V22.212a56.882 56.882 0 01-13.4-5.365 53.841 53.841 0 01-7.84-5.325 53.824 53.824 0 01-7.84 5.325 56.886 56.886 0 01-13.4 5.365z"/></g><defs><clipPath id="clip0_282_2127"><path fill="#fff" d="M0 0h75v75H0z"/></clipPath></defs></svg>