<svg width="46" height="46" fill="none" xmlns="http://www.w3.org/2000/svg"><path d="M2.625 23v12.75H.25V14.375a2.626 2.626 0 012.625-2.625h15.813a1.188 1.188 0 010 2.375H2.624v6.25h16.064a1.188 1.188 0 010 2.375H2.624V23zM.25 36.75h2.375v3.75h40.75V30.187a1.188 1.188 0 012.375 0V40.25a2.626 2.626 0 01-2.625 2.625H2.875A2.626 2.626 0 01.25 40.25v-3.5z" fill="#A01818" stroke="#fff" stroke-width=".5"/><path d="M7.188 29h5.75a1.188 1.188 0 010 2.375h-5.75a1.188 1.188 0 010-2.375zM34.97 3.22h-.001a1.218 1.218 0 00-.94 0h-.002l-10.06 4.312s0 0 0 0a1.191 1.191 0 00-.717 1.093v5.75c0 3.922.725 7.005 2.406 9.664 1.683 2.663 4.34 4.925 8.252 7.179a1.193 1.193 0 001.184 0c3.911-2.248 6.569-4.508 8.252-7.17 1.681-2.66 2.406-5.745 2.406-9.673v-5.75a1.19 1.19 0 00-.72-1.093L34.97 3.22zm0 0l10.06 4.312L34.97 3.22zm-.599 25.514l.129.077.129-.077c3.23-1.936 5.425-3.838 6.808-6.112 1.384-2.277 1.938-4.9 1.938-8.247V9.409l-.151-.065-8.625-3.698-.099-.042-.099.042-8.625 3.698-.151.065v4.966c0 3.342.554 5.963 1.938 8.24 1.383 2.274 3.577 4.178 6.808 6.119z" fill="#A01818" stroke="#fff" stroke-width=".5"/><path d="M32.963 17.828l.19.284.213-.266 4.519-5.652s0 0 0 0a1.197 1.197 0 011.67-.185c.513.41.594 1.156.185 1.67 0 0 0 0 0 0l-5.75 7.187c-.228.285-.57.446-.928.446h0-.001 0-.001 0-.001 0-.001 0-.001 0-.001 0-.001 0-.001 0-.001 0-.001 0-.001 0-.001 0-.001 0-.001 0-.001 0-.001 0-.001 0-.001 0-.001 0-.001 0-.001 0-.001 0-.001 0-.001 0-.001 0-.001 0-.001 0-.001 0-.001 0-.001 0-.001 0-.001 0-.001 0-.001 0-.001 0-.001 0-.001 0-.001 0-.001 0-.001 0-.001 0-.001 0-.001 0-.001 0-.001 0-.001 0-.001 0-.001 0-.001 0-.001 0-.001 0-.001 0-.001 0-.001 0a1.2 1.2 0 01-.935-.53s0 0 0 0l-2.875-4.312h0a1.19 1.19 0 01.331-1.646h0a1.191 1.191 0 011.646.332l1.788 2.672z" fill="#A01818" stroke="#fff" stroke-width=".5"/></svg>