<svg width="46" height="46" fill="none" xmlns="http://www.w3.org/2000/svg"><g clip-path="url(#clip0_130_1404)" fill="#A01818" stroke="#fff" stroke-width=".5"><path d="M29.193 33.147c0-3.06 2.49-5.548 5.549-5.548s5.548 2.489 5.548 5.548a5.554 5.554 0 01-5.548 5.548 5.555 5.555 0 01-5.549-5.548zm2.4 0a3.152 3.152 0 003.149 3.15 3.152 3.152 0 003.149-3.15 3.152 3.152 0 00-3.15-3.15 3.152 3.152 0 00-3.148 3.15zm-22.21 0a5.554 5.554 0 015.548-5.548 5.555 5.555 0 015.549 5.548c0 3.06-2.49 5.548-5.549 5.548a5.555 5.555 0 01-5.548-5.548zm2.399 0a3.152 3.152 0 003.15 3.15 3.152 3.152 0 003.148-3.15 3.152 3.152 0 00-3.149-3.15 3.152 3.152 0 00-3.149 3.15zM36.68 12.74l-.069-.137h-6.644v-2.4h7.384a1.2 1.2 0 011.072.662l4.237 8.425-2.144 1.078-3.835-7.627z"/><path d="M19.675 34.395v-2.4h10.468v2.4H19.675zM5.557 31.996h5.025a1.2 1.2 0 110 2.399H5.557a1.2 1.2 0 110-2.4zm37.09-12.631l2.851 3.672h0c.163.21.252.47.252.736v9.422a1.2 1.2 0 01-1.2 1.2h-5.46a1.2 1.2 0 110-2.4h4.261v-7.811l-.053-.068-2.11-2.719-.076-.097H29.717a1.2 1.2 0 01-1.2-1.2V9.705H5.557a1.2 1.2 0 110-2.4h24.16a1.2 1.2 0 011.2 1.2v10.397H41.7c.37 0 .72.171.947.464h0zM11.684 25.85v0a1.2 1.2 0 01-1.2 1.2H3.818a1.2 1.2 0 110-2.399h6.668a1.2 1.2 0 011.2 1.2zM1.45 18.95h12.37a1.2 1.2 0 110 2.399H1.45a1.2 1.2 0 110-2.4z"/><path d="M17.386 14.447v0a1.2 1.2 0 01-1.2 1.2H3.816a1.2 1.2 0 110-2.4h12.37a1.2 1.2 0 011.2 1.2z"/></g><defs><clipPath id="clip0_130_1404"><path fill="#fff" d="M0 0h46v46H0z"/></clipPath></defs></svg>