<svg width="29" height="27" fill="none" xmlns="http://www.w3.org/2000/svg"><path d="M14.056 4.943l.444.863.444-.863c.194-.376.423-.772.691-1.167l-.413-.281.413.281C16.676 2.246 18.48.5 21.297.5c2.022 0 3.868.864 5.205 2.444C27.783 4.457 28.5 6.499 28.5 8.7c0 2.37-.882 4.6-2.854 7.041-1.776 2.2-4.34 4.478-7.363 7.16l.332.374-.332-.374-.002.001c-1.121.996-2.283 2.027-3.521 3.155h0l-.037.033a.328.328 0 01-.223.089.328.328 0 01-.223-.089l-.036-.033h-.001a331.55 331.55 0 00-3.512-3.146l-.011-.01h0c-3.022-2.682-5.587-4.96-7.363-7.16C1.382 13.3.5 11.071.5 8.701c0-2.202.717-4.244 1.997-5.757C3.835 1.364 5.681.5 7.703.5c2.818 0 4.62 1.746 5.662 3.276l.413-.281-.413.281c.268.394.497.791.69 1.167z" stroke="#A01818"/></svg>