<svg width="46" height="46" fill="none" xmlns="http://www.w3.org/2000/svg"><path d="M37.96 24.313c-.37 0-.67.3-.67.67a.851.851 0 01-1.7 0 .67.67 0 10-1.339 0c0 1.206.982 2.188 2.189 2.188a2.191 2.191 0 002.189-2.189c0-.37-.3-.67-.67-.67z" fill="#A01818"/><path d="M44.243 24.422l-1.884-.603a.788.788 0 01-.509-.516 12.15 12.15 0 00-1.781-3.523 12.86 12.86 0 00-1.19-1.403c.278-1.22.43-2.6.41-3.792-.028-1.706-.37-2.706-1.042-3.059-.363-.19-1.466-.768-7.438 1.966a2.17 2.17 0 00-.396.236 25.884 25.884 0 00-1.228-.298l-.151-.031a9.12 9.12 0 00.82-3.39.67.67 0 10-1.338-.06 7.778 7.778 0 01-2.276 5.162 7.753 7.753 0 01-2.82 1.802 19.413 19.413 0 00-5.389 0 7.751 7.751 0 01-2.82-1.802 7.747 7.747 0 01-2.284-5.514c0-2.083.811-4.041 2.284-5.514a7.747 7.747 0 015.514-2.284c2.083 0 4.042.81 5.515 2.284a7.793 7.793 0 011.453 2.007.67.67 0 101.196-.602 9.13 9.13 0 00-1.703-2.352A9.077 9.077 0 0020.726.46c-2.441 0-4.736.95-6.462 2.676a9.078 9.078 0 00-2.676 6.46c0 2.441.95 4.736 2.676 6.462.498.498 1.04.926 1.613 1.285-.416.108-.83.229-1.238.366a.67.67 0 00.425 1.27 17.966 17.966 0 0111.323 0 .667.667 0 00.847-.423.67.67 0 00-.423-.847 18.825 18.825 0 00-1.237-.367 9.132 9.132 0 002.78-2.717 25.86 25.86 0 011.264.28c-.007.03-.015.058-.021.088-.326 1.55-.305 2.92.063 4.072.331 1.037.928 1.876 1.775 2.496.999.73 2.204 1.046 3.295 1.046.822 0 1.58-.18 2.136-.494.63-.357 1.156-1.108 1.574-2.235a10.811 10.811 0 012.133 3.827c.208.66.722 1.179 1.378 1.389l1.884.604c.494.158.826.613.826 1.132v3.124c0 .52-.332.974-.826 1.133l-3.036.972c-.486.156-.897.49-1.157.94-1.193 2.061-3.068 3.767-5.574 5.07-.29.15-.49.42-.55.74l-.973 5.148a.301.301 0 01-.295.244h-3.162a.301.301 0 01-.295-.244l-.538-2.846a1.052 1.052 0 00-1.197-.846 27.966 27.966 0 01-7.238.137 1.06 1.06 0 00-1.16.851l-.512 2.704a.3.3 0 01-.296.244h-3.16a.301.301 0 01-.297-.246l-.936-4.863a1.05 1.05 0 00-.54-.73c-4.272-2.281-6.53-6.09-6.53-11.018 0-2.49.545-4.69 1.62-6.543 1.002-1.728 2.466-3.157 4.35-4.248a.67.67 0 00-.67-1.159c-3.655 2.114-5.859 5.376-6.466 9.519l-.193-.018a3.334 3.334 0 00-.245-1.336c-.389-.966-1.187-1.662-2.033-1.775-.667-.09-1.302.194-1.742.776-.639.844-.535 1.512-.335 1.923.337.695 1.204 1.186 2.642 1.495a2.88 2.88 0 01-.13.179c-.85 1.066-1.852 1.301-2.502 1.323a.703.703 0 00-.685.7v.003c0 .376.296.682.672.7.048.001.098.003.15.003.823 0 2.143-.304 3.412-1.894a3.8 3.8 0 00.488-.79c.127.014.248.026.364.037-.022.362-.035.73-.035 1.105 0 2.788.664 5.273 1.975 7.388 1.208 1.95 2.939 3.546 5.144 4.746l.91 4.728a1.64 1.64 0 001.611 1.334h3.161a1.64 1.64 0 001.611-1.334l.463-2.445a29.417 29.417 0 007.063-.133l.488 2.578a1.641 1.641 0 001.611 1.334h3.162a1.64 1.64 0 001.61-1.335l.947-5.012c2.675-1.414 4.69-3.272 5.993-5.523a.732.732 0 01.407-.336l3.036-.972A2.52 2.52 0 0046 29.954V26.83a2.52 2.52 0 00-1.757-2.408zm-6.394-7.956c-.257 2.203-.949 4.088-1.643 4.482-.79.447-2.612.533-3.98-.468-1.37-1.002-1.826-2.804-1.319-5.211a.808.808 0 01.46-.56c3.351-1.534 5.283-2.035 6.001-2.035a.7.7 0 01.243.032c.216.23.498 1.536.238 3.76zM1.88 23.898c-.069-.142.095-.393.199-.53.164-.218.315-.262.43-.262a.5.5 0 01.067.005c.308.04.74.38.968.947.053.134.123.356.14.632-.927-.192-1.647-.469-1.803-.792z" fill="#A01818"/><path d="M21.375 8.83V6.434c.826.059 1.133.437 1.416.437.354 0 .52-.449.52-.673 0-.578-1.134-.826-1.936-.85V5.03c0-.141-.177-.271-.354-.271-.201 0-.343.13-.343.271v.343c-1.12.118-2.242.708-2.242 2.195 0 1.51 1.18 1.935 2.242 2.313v2.773c-1.204-.094-1.522-.92-1.912-.92-.295 0-.542.39-.542.672 0 .579.991 1.37 2.454 1.393v.366c0 .142.142.271.343.271.177 0 .354-.13.354-.271v-.401c1.274-.177 2.148-.98 2.148-2.431 0-1.605-1.122-2.125-2.148-2.502zm-.626-.225c-.625-.236-1.133-.483-1.133-1.156 0-.614.472-.909 1.133-.991v2.147zm.555 4.025v-2.49c.578.247 1.038.578 1.038 1.321 0 .673-.4 1.05-1.038 1.169z" fill="#A01818"/></svg>