<svg width="46" height="46" fill="none" xmlns="http://www.w3.org/2000/svg"><path d="M45.75 43.974v.678s0 0 0 0a1.099 1.099 0 01-1.098 1.098H1.348c-.291 0-.57-.116-.776-.322h0a1.096 1.096 0 01-.322-.776v-.678s0 0 0 0c0-1.524.906-2.893 2.308-3.49h0l11.46-4.875.151-.065v-3.109l-.054-.069a10.437 10.437 0 01-2.185-5.162l-.029-.217H9.34a3.798 3.798 0 01-3.793-3.793v-5.796a3.799 3.799 0 013.265-3.755l.208-.03.007-.21c.144-4.34 1.428-7.617 3.757-9.812C15.114 1.396 18.526.25 23 .25c4.474 0 7.887 1.146 10.217 3.341 2.328 2.195 3.612 5.472 3.756 9.812l.007.21.208.03a3.799 3.799 0 013.265 3.755v5.796a3.798 3.798 0 01-3.793 3.793h-2.561l-.028.217a10.44 10.44 0 01-2.185 5.162l-.055.069v3.11l.153.064 11.459 4.876.098-.23-.098.23a3.787 3.787 0 012.308 3.489zm-16.113-7.657h0v-.007a.687.687 0 01-.002-.04v-1.788l-.384.243c-1.803 1.14-3.957 1.756-6.251 1.756-2.294 0-4.448-.615-6.252-1.756l-.383-.243v1.788l-.001.04h0v.023l-.001.032v.117a10.2 10.2 0 00.205 1.809c.228 1.098.709 2.475 1.733 3.534h0c1.119 1.158 2.712 1.729 4.699 1.729 1.994 0 3.591-.575 4.711-1.741h0c1.013-1.054 1.49-2.427 1.718-3.523a9.494 9.494 0 00.208-1.974zm2.22-10.94l.112-.075V14.831l-.007-.028c-.767-3.168-1.735-4.339-2.499-4.737-.53-.277-1.133-.262-1.741-.13-.604.132-1.252.39-1.893.644l-.011.005s0 0 0 0c-1.01.401-1.909.754-2.818.754-.902 0-1.812-.35-2.834-.747 0 0 0 0 0 0l-.013-.005c-.64-.248-1.316-.51-1.949-.646-.635-.135-1.274-.153-1.814.14-.53.288-.983.86-1.368 1.644-.387.789-.717 1.82-.986 3.067l-.005.026V25.77c0 4.862 3.873 8.515 8.969 8.515 3.935 0 7.143-2.177 8.4-5.419l.285-.736-.657.438-.516.344h0a7.358 7.358 0 01-4.098 1.241h-2.28a1.098 1.098 0 010-2.195h2.28a5.174 5.174 0 002.88-.872l2.564-1.71zm2.307-.835v.25h2.496a1.6 1.6 0 001.598-1.598v-5.796A1.6 1.6 0 0036.66 15.8h-2.496v8.742zM13.684 5.835h0c-1.517 1.781-2.332 4.316-2.458 7.51l-.01.26h.842l.049-.187c.724-2.792 1.803-4.488 3.236-5.266 1.905-1.034 3.901-.273 5.617.394h0l.005.002c.364.141.744.289 1.09.4.34.11.676.196.945.196.268 0 .6-.086.934-.196.34-.112.711-.26 1.068-.401l.005-.002h0c1.656-.659 3.583-1.41 5.471-.426 1.482.773 2.584 2.437 3.392 5.304l.051.182h.863l-.01-.26c-.126-3.194-.941-5.729-2.459-7.51l-.19.162.19-.162c-1.932-2.268-5.087-3.39-9.315-3.39s-7.383 1.122-9.315 3.39zM11.837 16.05v-.25H9.34a1.6 1.6 0 00-1.598 1.598v5.796a1.6 1.6 0 001.598 1.598h2.496V16.05zm2.485 22.153l-.051-.315-.294.125-10.558 4.492s0 0 0 0c-.328.139-.592.38-.761.675l-.215.374h14.455l-.373-.416c-1.396-1.56-1.972-3.497-2.204-4.935zm15.155 4.935l-.373.416h14.455l-.215-.374a1.596 1.596 0 00-.76-.675s0 0 0 0l-10.559-4.492-.294-.125-.05.315c-.233 1.438-.809 3.375-2.204 4.935z" fill="#A01818" stroke="#fff" stroke-width=".5"/></svg>