<svg width="135" height="135" fill="none" xmlns="http://www.w3.org/2000/svg"><ellipse cx="67.251" cy="67.241" rx="67.251" ry="67.241" fill="#4E6297"/><path d="M97.515 46.46c0-5.035-4.442-9.477-9.478-9.477H49.83c-5.035 0-9.477 4.442-9.477 9.476v38.202c0 5.034 4.442 9.477 9.478 9.477h19.252V72.519h-7.109v-9.476h7.109v-3.85c0-6.515 4.739-12.142 10.662-12.142h7.701v9.477h-7.7c-.89 0-1.778.888-1.778 2.665v3.85h9.478v9.476h-9.478v21.619h10.07c5.035 0 9.478-4.443 9.478-9.477V46.46z" fill="#fff"/></svg>