<svg width="135" height="135" fill="none" xmlns="http://www.w3.org/2000/svg"><ellipse cx="67.224" cy="67.214" rx="67.224" ry="67.214" fill="url(#paint0_linear_282_1572)"/><path d="M89.343 40.328H48.465c-4.615 0-8.131 3.516-8.131 8.13V89.33c0 4.614 3.516 8.13 8.131 8.13h40.878c4.615 0 8.131-3.516 8.131-8.13V48.459c0-4.615-3.516-8.13-8.131-8.13zM68.904 86.034c9.45 0 17.142-7.472 17.142-16.48 0-1.539-.22-3.297-.659-4.615h4.835V88.23c0 1.099-.88 2.197-2.198 2.197h-38.24c-1.099 0-2.198-.879-2.198-2.197V64.719h5.055a16.723 16.723 0 00-.66 4.615c-.219 9.228 7.473 16.7 16.923 16.7zm0-6.593c-6.153 0-10.988-4.834-10.988-10.767s4.835-10.767 10.988-10.767c6.154 0 10.989 4.834 10.989 10.767 0 6.153-4.835 10.767-10.989 10.767zM90.002 55.93a2.439 2.439 0 01-2.417 2.417H81.43a2.439 2.439 0 01-2.417-2.417v-5.933a2.439 2.439 0 012.417-2.417h6.154a2.439 2.439 0 012.417 2.417v5.933z" fill="#fff"/><defs><linearGradient id="paint0_linear_282_1572" x1="28.57" y1="119.304" x2="117.628" y2="26.872" gradientUnits="userSpaceOnUse"><stop stop-color="#EEA054"/><stop offset=".503" stop-color="#D64763"/><stop offset="1" stop-color="#B62A99"/></linearGradient></defs></svg>