<svg width="135" height="135" fill="none" xmlns="http://www.w3.org/2000/svg"><ellipse cx="67.25" cy="67.24" rx="67.25" ry="67.24" fill="#2F89CE"/><path d="M31.441 68.497l15.461 5.765L52.93 93.65c.262 1.31 1.835 1.573 2.883.787l8.648-7.075c.786-.786 2.096-.786 3.144 0l15.46 11.268c1.048.786 2.62.262 2.883-1.048l11.53-55.023c.262-1.31-1.048-2.62-2.358-2.096L31.44 65.092c-1.572.523-1.572 2.881 0 3.405zm20.702 2.883l30.398-18.603c.524-.262 1.048.524.524.786L58.17 76.882c-.786.786-1.572 1.834-1.572 3.144l-.786 6.288c0 .786-1.31 1.048-1.572 0l-3.145-11.528c-.786-1.31-.262-2.882 1.048-3.406z" fill="#fff"/></svg>