<svg width="21" height="15" fill="none" xmlns="http://www.w3.org/2000/svg"><rect width="21" height="15" rx="2" fill="#fff"/><mask id="a" style="mask-type:alpha" maskUnits="userSpaceOnUse" x="0" y="0" width="21" height="15"><rect width="21" height="15" rx="2" fill="#fff"/></mask><g mask="url(#a)"><path fill-rule="evenodd" clip-rule="evenodd" d="M21 0H0v1h21V0zm0 2H0v1h21V2zM0 4h21v1H0V4zm21 2H0v1h21V6zM0 8h21v1H0V8zm21 2H0v1h21v-1zM0 12h21v1H0v-1zm21 2H0v1h21v-1z" fill="#D02F44"/><path fill="#46467F" d="M0 0h9v7H0z"/><g filter="url(#filter0_d_497_28420)"><path fill-rule="evenodd" clip-rule="evenodd" d="M2 1.5a.5.5 0 11-1 0 .5.5 0 011 0zm2 0a.5.5 0 11-1 0 .5.5 0 011 0zm1.5.5a.5.5 0 100-1 .5.5 0 000 1zM8 1.5a.5.5 0 11-1 0 .5.5 0 011 0zM2.5 3a.5.5 0 100-1 .5.5 0 000 1zM5 2.5a.5.5 0 11-1 0 .5.5 0 011 0zm1.5.5a.5.5 0 100-1 .5.5 0 000 1zm1.5.5a.5.5 0 11-1 0 .5.5 0 011 0zM5.5 4a.5.5 0 100-1 .5.5 0 000 1zM4 3.5a.5.5 0 11-1 0 .5.5 0 011 0zM1.5 4a.5.5 0 100-1 .5.5 0 000 1zm1.5.5a.5.5 0 11-1 0 .5.5 0 011 0zm1.5.5a.5.5 0 100-1 .5.5 0 000 1zM7 4.5a.5.5 0 11-1 0 .5.5 0 011 0zM7.5 6a.5.5 0 100-1 .5.5 0 000 1zM6 5.5a.5.5 0 11-1 0 .5.5 0 011 0zM3.5 6a.5.5 0 100-1 .5.5 0 000 1zM2 5.5a.5.5 0 11-1 0 .5.5 0 011 0z" fill="url(#paint0_linear_497_28420)"/></g></g><defs><linearGradient id="paint0_linear_497_28420" x1="1" y1="1" x2="1" y2="6" gradientUnits="userSpaceOnUse"><stop stop-color="#fff"/><stop offset="1" stop-color="#F0F0F0"/></linearGradient><filter id="filter0_d_497_28420" x="1" y="1" width="7" height="6" filterUnits="userSpaceOnUse" color-interpolation-filters="sRGB"><feFlood flood-opacity="0" result="BackgroundImageFix"/><feColorMatrix in="SourceAlpha" values="0 0 0 0 0 0 0 0 0 0 0 0 0 0 0 0 0 0 127 0" result="hardAlpha"/><feOffset dy="1"/><feColorMatrix values="0 0 0 0 0 0 0 0 0 0 0 0 0 0 0 0 0 0 0.06 0"/><feBlend in2="BackgroundImageFix" result="effect1_dropShadow_497_28420"/><feBlend in="SourceGraphic" in2="effect1_dropShadow_497_28420" result="shape"/></filter></defs></svg>