<svg width="21" height="15" fill="none" xmlns="http://www.w3.org/2000/svg"><rect x=".25" y=".25" width="20.5" height="14.5" rx="1.75" fill="#fff" stroke="#F5F5F5" stroke-width=".5"/><mask id="a" style="mask-type:alpha" maskUnits="userSpaceOnUse" x="0" y="0" width="21" height="15"><rect x=".25" y=".25" width="20.5" height="14.5" rx="1.75" fill="#fff" stroke="#fff" stroke-width=".5"/></mask><g mask="url(#a)" fill-rule="evenodd" clip-rule="evenodd"><path d="M0 5h21V0H0v5z" fill="#04AAC8"/><path d="M0 15h21v-5H0v5z" fill="#23C840"/><path d="M3.5 4c.308 0 .595-.093.834-.253a1.25 1.25 0 110-2.495A1.5 1.5 0 103.5 4zM6 3.5a.5.5 0 11-1 0 .5.5 0 011 0zM7.5 2a.5.5 0 100-1 .5.5 0 000 1zm2.5-.5a.5.5 0 11-1 0 .5.5 0 011 0zM9.5 4a.5.5 0 100-1 .5.5 0 000 1zM8 3.5a.5.5 0 11-1 0 .5.5 0 011 0z" fill="#fff"/></g></svg>