<svg width="191" height="72" fill="none" xmlns="http://www.w3.org/2000/svg"><g clip-path="url(#clip0_182_78)" fill="#000"><path d="M87.941 3.148c2.963-1.088 6.172-1.684 9.324-1.2-.567.15-1.123.307-1.67.503 3.255-.038 6.397 1.098 9.247 2.558-.443.056-.887.103-1.33.158 3.095.959 5.803 2.987 7.832 5.462-.717-.177-1.434-.382-2.151-.55 1.613 1.164 3.208 2.42 4.378 4.039.944 1.274 1.605 2.744 1.888 4.289-.727-.707-1.388-1.47-2.171-2.122 1.142 2.047 2.727 4.01 2.963 6.41-.698-.52-1.321-1.134-2.01-1.683.585 1.079 1.331 2.074 1.812 3.21.755 1.693.963 3.553 1.085 5.377-.67-.689-1.292-1.414-1.991-2.084 1.557 4.345 2.01 9.21.491 13.63a10.712 10.712 0 01-.727 1.647c-.453-3.099-.67-6.243-1.434-9.295-.538 2.289-1.491 4.578-3.237 6.234a7.495 7.495 0 01-2.755 1.684c.868-1.963 1.868-3.89 2.481-5.945-2.755 2.865-6.417 4.624-9.653 6.875 1.566-2.735 3.161-5.47 4.727-8.206-2.651 2.112-5.265 4.28-7.917 6.392.821-2.307 1.765-4.578 2.491-6.922-1.944 2.614-4.577 4.689-7.493 6.168 1.199-1.674 2.52-3.275 3.54-5.07-1.161.958-2.143 2.158-3.502 2.875.425-1.042.982-2.047 1.265-3.145-.66.735-1.33 1.47-2.067 2.15-1.189 1.106-2.397 2.232-3.84 3.004.632-2 1.283-4 1.981-5.982-2.02 1.823-3.945 3.88-6.474 5.005 1.095-1.963 1.992-4.037 2.539-6.215-.83.735-1.34 1.73-1.991 2.615-1.397 1.963-2.907 3.917-4.936 5.284.51-1.284 1.34-2.623 1.048-4.056l-.151-.037c-1.83 1.395-3.312 3.34-3.831 5.6-.52-1.814.085-3.702.906-5.33 1.49-2.903 3.755-5.322 6.105-7.574 1.246-1.265 2.539-2.596 3.18-4.28-.056-1.358-.906-2.567-1.812-3.544-1.85-1.917-4.208-3.22-6.388-4.717-2.114.186-4.256.223-6.37-.065a6.189 6.189 0 01-1.869-.559c-.283.559-.566 1.145-.585 1.777-.028.791.151 1.582.114 2.373-1.02-.726-1.369-2.01-1.661-3.145-.208-2.27.726-4.568 2.217-6.28 2.095-2.196 5.068-3.321 7.993-3.973.699-.14 1.02-.828 1.51-1.265.793-.874 1.963-1.414 3.162-1.34-.255.242-.52.475-.774.726 2.34-1.023 4.7-2.205 7.313-2.307l-.802.846zM85.29 4.823c.444-.595.944-1.144 1.378-1.74-1.01.363-1.49 1.396-2.18 2.14 1.246-.214 2.435-.642 3.605-1.079 1.368-.493 2.812-1.126 4.294-.772-.548.25-1.076.549-1.529.949 1.84-.419 3.709-.772 5.615-.754 1.755-.01 3.567.382 4.954 1.507-.849-.12-1.708-.204-2.576-.13 1.463.437 2.944.8 4.369 1.35 1.689.66 3.463 1.385 4.662 2.78-.944-.204-1.916-.306-2.869-.11 1.01.688 2.076 1.311 3.029 2.074 1.378 1.098 2.728 2.354 3.379 4.02-1.076-.754-2.341-1.424-3.709-1.331.755.54 1.67.837 2.425 1.386 1.095.726 2.161 1.777 2.199 3.163-.868-.716-1.906-1.19-3.029-1.32.877 1.05 1.765 2.102 2.586 3.2 1.16 1.619 2.387 3.368 2.538 5.405-1.01-1.154-2.274-2.307-3.907-2.372.85 1.311 1.784 2.623 2.123 4.168.274 1.107.17 2.354-.5 3.303-.575-1.08-1.047-2.29-2.104-3.015.208 2.987-.963 5.992-3.095 8.104.188-2.522.575-5.07.151-7.583-.142.307-.274.614-.416.912-1.075 2.354-3.142 4.205-5.548 5.192.896-2.773 1.878-5.583 2.085-8.504-2.604 2.326-5.388 4.456-8.172 6.568.783-1.693 1.614-3.377 2.095-5.182-1.642 2.503-3.86 4.568-6.172 6.466 1.444-2.558 3.03-5.284 2.926-8.308-1.576 3.052-3.87 5.75-6.738 7.694 1.434-1.916 2.217-4.214 2.538-6.559.33 1.554-.094 3.145-.811 4.53 2.255-1.972 3.746-4.604 5.416-7.042.246 2.605-.17 5.331-1.566 7.582 1.934-1.907 3.53-4.121 5.162-6.27-.246 1.842-.66 3.693-1.444 5.396 2.595-1.917 5.001-4.056 7.455-6.14-.33 2.94-.698 5.926-1.765 8.717 2.652-1.442 4.086-4.233 5.257-6.866.396 2.419.736 4.903.311 7.34 1.642-1.907 1.68-4.577 1.661-6.95 1.312.4 2.218 1.517 2.803 2.69.33-.745.132-1.573-.114-2.308-.575-1.628-1.538-3.089-2.529-4.503 1.567-.14 3.114.484 4.219 1.573-.435-1.461-1.416-2.67-2.322-3.87-.972-1.313-2.151-2.476-2.916-3.927 1.189.205 2.378.502 3.454 1.06-.604-1.153-1.736-1.888-2.831-2.54-.632-.4-1.378-.688-1.84-1.293 1.123-.344 2.284.103 3.331.494-1.727-2.29-4.247-3.796-6.634-5.313.991-.242 2.01-.344 3.029-.232a12.202 12.202 0 00-2.236-1.247c-2.341-1.014-4.794-1.693-7.248-2.382.83-.242 1.69-.344 2.558-.381-1.237-.521-2.596-.698-3.926-.67-2.284.056-4.549.502-6.72 1.2.643-.512 1.284-1.033 1.926-1.544-2.595.353-4.879 1.897-7.53 2.046.471-.65 1.019-1.246 1.5-1.898-1.17.53-2.142 1.405-2.737 2.522 1.661-.4 3.549-.745 5.124.13-2.302-.223-4.803.586-6.322 2.354 1.35-.53 2.916-.847 4.312-.298-1.481.149-3.048.558-4.086 1.684.944-.195 1.822-.651 2.803-.642 1.66-.037 3.331.028 4.983.251 1 .103 1.859.642 2.755 1.042.698.28 1.123.93 1.746 1.321.5.317 1.038.587 1.604.773.821.26 1.718.158 2.539.437.698.242 1.406.446 2.104.66-.727.02-1.434-.102-2.133-.297-.764-.223-1.576.01-2.35-.121-1.075-.344-2.123-1.06-3.302-.875-.472.252-.783.698-1.133 1.089.529.53 1.105 1.014 1.482 1.665-.425-.316-.764-.735-1.227-.986-.141.046-.424.149-.575.195.188.177.396.363.594.53-.897-.139-1.793-.306-2.699-.418a10.4 10.4 0 00-.32.326 1.764 1.764 0 01-.539-.717c.585.084 1.19.298 1.784.186.387-.037.453-.335.33-.66.217.111.434.232.651.344.236-.577.67-1.042.944-1.6.085-.68-.472-1.182-.84-1.684.217.567.425 1.219.076 1.786-.821 1.526-3.492 1.396-4.087-.242-.16-.502-.566-.847-1.01-1.116.076.465.124.958.435 1.349.387.567 1.095.902 1.283 1.61-1.17-.55-1.774-1.74-2.566-2.67-.472.222-.142.771-.048 1.125.566 1.219 1.34 2.586 2.765 2.95.651.167 1.548.353 1.586 1.18.707.205 1.557-.008 2.123.568-.868-.167-1.746-.149-2.623-.102-.906.614-2.039.502-3.058.307.311.288.632.568.953.847a27.501 27.501 0 01-3.793-1.47c1.245 1.181 2.887 1.823 4.435 2.54-.991-.13-1.925-.475-2.897-.67 1.311.67 2.717 1.144 4.133 1.581.972.317 2.029.558 2.793 1.293-.764-.204-1.528-.446-2.321-.54 1.095.727 1.982 1.945 1.821 3.304-.311-1.126-1.245-1.88-2.208-2.456 1.387 1.488.99 3.898-.236 5.358.302-1.06.793-2.14.585-3.265-.104-.716-.604-1.275-1.095-1.777.246.623.529 1.265.463 1.954-.01.567-.302 1.06-.576 1.544.274-.93.142-1.916-.292-2.791.047 1.107-.265 2.252-1.152 2.996a3.34 3.34 0 00.293-1.842c-.632 1.628-1.718 3.014-2.878 4.317-.802.874-1.454 1.87-2.18 2.81-.227.241-.236.576-.236.893.68-.559 1.293-1.182 1.925-1.787 1.189-1.172 2.406-2.317 3.435-3.628-.406 1.163-1.114 2.195-1.736 3.247-.878 1.46-1.878 2.865-2.7 4.363 1.926-1.414 3.285-3.405 4.823-5.2-.585 2.381-1.085 4.81-2 7.098 2.292-1.46 4.038-3.572 5.926-5.48-.604 2.326-1.18 4.68-2.105 6.904 2.086-1.777 3.926-3.834 5.587-6.001a70.984 70.984 0 01-.5 3.46c1.387-1.274 2.699-2.623 4.095-3.888-.68 2.01-1.982 3.73-2.963 5.6 1.076-.809 1.963-1.832 2.878-2.81 1.33-1.478 2.624-2.976 3.841-4.54-.849 2.736-1.821 5.443-2.727 8.17 2.548-1.992 5.067-4.02 7.625-6.002-.274.856-.661 1.666-1.038 2.475-.944 1.907-1.897 3.824-3.143 5.555 1.746-1.005 3.388-2.168 4.954-3.434 1.642-1.358 3.256-2.846 4.247-4.754-.519 2.429-1.104 4.847-2.076 7.146.991-.736 1.595-1.833 2.076-2.94.755-1.777 1.217-3.666 1.576-5.555 1.076 2.689 1.887 5.499 2.133 8.392.547-1.73.207-3.573-.019-5.33-.434-2.68-1.114-5.323-1.85-7.937.897.633 1.774 1.293 2.576 2.038-.198-.977-.556-1.917-.981-2.82-1-2.12-2.246-4.13-3.246-6.252.821.642 1.642 1.303 2.585 1.768-.849-1.823-1.934-3.526-2.727-5.368.821.437 1.567 1.005 2.293 1.59-.339-.66-.736-1.302-1.226-1.86-1.775-2.038-4.068-3.526-6.248-5.108.878.028 1.765.093 2.643.15-2.161-2.15-5.068-3.322-7.805-4.597.321-.056.633-.102.954-.158-1.293-.8-2.813-1.163-4.304-1.386-1.85-.233-3.736-.27-5.586-.038.472-.25.953-.502 1.434-.744a6.175 6.175 0 00-1.604.075c-2.435.4-4.747 1.311-7.059 2.13zM80.212 5.94a5.69 5.69 0 01.548-1.368c-.887.605-1.633 1.433-2.086 2.391.17 1.321 1.312 2.224 2.284 3.024.519-.596 1.208-.996 1.925-1.303-.764.168-1.463.54-2.104.977.113-.512.207-1.06.537-1.489.633-.893 1.652-1.358 2.624-1.795-.878.195-1.774.4-2.491.949.292-1.2 1.113-2.159 1.981-3.015a51.985 51.985 0 00-3.218 1.629zM74.06 8.256c.207.233.519.428.556.763-.755.865-2.076.968-2.793 1.889 1.095.912 2.661.846 3.784 1.693-.217.214-.424.428-.641.651.887.13 1.793.205 2.66.456.416.102.661.484 1.039.67.236 0 .717 0 .953-.01-.302-.13-.604-.25-.915-.38.83.027 1.66.185 2.453.427-.208-.195-.613-.595-.821-.79a5.216 5.216 0 011.576.995c1.35.205 2.67.614 3.897 1.219.812.4 1.727.735 2.633.474-1.16-.288-2.434-.614-3.208-1.59-.434-.457-.444-1.127-.784-1.629-.405-.595-.877-1.172-1.472-1.6-.858-.568-1.925-.744-2.736-1.386-1-.782-1.68-1.88-2.246-2.987a21.58 21.58 0 00-3.935 1.135zm-5.134 4.168c-.934 1.489-1.123 3.34-.613 5.006.122-.614.358-1.191.528-1.796.123-.437.104-.986.5-1.293.566-.437 1.303-.596 2-.66 1.435-.168 2.69 1.013 4.125.66a6.14 6.14 0 012.217-.112c.104-.102.208-.195.312-.297-1.076-.382-2.275-.28-3.322-.726.226-.177.453-.354.689-.521-1-.791-2.388-.791-3.445-1.489-.198-.12-.34-.372-.141-.558.764-.772 2.02-.865 2.68-1.758l-.642-.521c-1.981.855-3.85 2.149-4.888 4.065zm18.845-1.805c-.755.335-1.019 1.303-.65 2.01.405.893 1.528 1.256 2.434.94 1.104-.326 1.708-1.898.82-2.736-.84-.204-1.745-.307-2.604-.214zm-17.77 3.713c-.396.13-.528.558-.698.883.482-.279.963-.595 1.53-.707 1.113-.223 2.226.168 3.35.14-1.303-.586-2.822-.856-4.181-.316zm.595 1.079c2.18.456 4.417.13 6.606.456.878-.093 1.708-.41 2.567-.577.915.381 1.906.344 2.878.419 1.17.39 2.095 1.33 3.34 1.553.84.121 1.737.354 2.577.056.32-.084.18-.521.236-.744-.566.065-1.16.195-1.718-.01-.943-.325-1.783-.902-2.765-1.162-1.245-.42-2.585-.391-3.86-.736-1.434-.093-2.877.056-4.312.02-.915-.047-1.802.325-2.708.157-.415-.046-.821-.158-1.246-.167-.604.018-1.123.381-1.595.735zm8.616.837c3.02 1.824 5.558 4.317 7.691 7.09-.33-1.191-1.123-2.196-2.01-3.043a7.28 7.28 0 001.85.27c-1.718-.577-3.398-1.414-4.615-2.763.377.065.755.14 1.123.214a27.239 27.239 0 01-2.152-1.545c.906.01 1.803.159 2.69.317-1.434-.624-3.039-.735-4.577-.54zm1.482 17.538a23.982 23.982 0 00-.085-1.656c-1.538 1.656-2.954 3.48-3.775 5.591.897-1.06 1.83-2.307 3.284-2.596.462 1.005.368 2.15.01 3.173a17.768 17.768 0 003.066-3.833c-.745.474-1.519.92-2.312 1.321.812-1.535 1.68-3.042 2.492-4.587-.925.838-1.803 1.712-2.68 2.587z"/><path d="M87.818 5.847c3.54-.875 7.38-.363 10.588 1.311-1.236-.158-2.434-.614-3.699-.446 1.69.493 3.331 1.126 4.879 1.954.83.456 1.661.92 2.331 1.6-2.01-.828-3.945-1.954-6.144-2.233 1.935.949 3.917 1.842 5.691 3.08a5.86 5.86 0 011.529 1.507c-2.076-1.191-4.124-2.475-6.398-3.266 1.934 1.33 3.963 2.53 5.746 4.066 1.01.865 2.029 1.814 2.577 3.042-1.963-1.889-4.115-3.61-6.559-4.866-3.406-1.832-7.21-2.81-11.05-3.237 1.944-.419 3.954-.103 5.907.055-2.01-.893-4.237-1.004-6.407-.976a34.76 34.76 0 015.558-.698c-1.378-.726-3.001-.772-4.549-.893zm3.954 0c.614.279 1.208.595 1.765.967-.415.177-.83.344-1.246.512.812.353 1.567.819 2.256 1.368-.566.065-1.133.102-1.699.14 1.133.288 2.246.669 3.36 1.041a50.158 50.158 0 01-1.284-1.172c.33-.019.67-.037 1.01-.047-.434-.316-1.114-.437-1.359-.92.293-.131.595-.224.897-.326-.576-.196-1.17-.363-1.7-.66.388-.168.784-.317 1.18-.466-1.028-.251-2.104-.372-3.18-.437zM75.164 8.88c.123-.53.812-.28 1.208-.335-.255.102-.51.195-.764.288 1 .28 1.962.828 2.5 1.73-.396-.018-.83-.009-1.151-.27-.623-.446-1.264-.883-1.793-1.413zm-.16.763c.764.325 1.359.902 1.887 1.525-.698-.409-1.585-.707-1.887-1.525zm13.267 1.451c.519-.41 1.368.01 1.359.66.038.596-.66 1.07-1.208.8-.585-.232-.68-1.125-.151-1.46z"/><path d="M104.173 13.224c2.888 1.628 4.577 4.755 5.256 7.871-1.755-1.925-3.784-3.814-6.379-4.521 1.803 1.693 2.822 4.056 3.19 6.456-2.19-1.553-4.426-3.06-6.823-4.298a15.221 15.221 0 00-2.925-1.172c1.944 1.423 2.982 3.684 3.784 5.87-1.17-1.209-2.52-2.297-4.134-2.865.897 1.284 1.416 2.782 1.586 4.326-1.01-1.74-2.765-2.977-4.728-3.451 1.463-.01 2.916.53 3.935 1.581-.34-1.32-1.293-2.354-2.34-3.191 1.453.326 2.897.726 4.19 1.48-.66-1.387-1.557-2.708-2.86-3.583-.604-.418-1.311-.632-1.981-.902 2.378-.093 4.643.819 6.747 1.823 1.604.791 3.142 1.703 4.558 2.792-.698-2.317-2.123-4.448-4.152-5.834 2.585.354 5.152 1.386 6.964 3.284-.755-2.205-2.369-3.954-3.888-5.666z"/><path d="M93.557 13.355c.943.428 1.878.902 2.916 1.079 1.68.354 3.52.065 5.058.94-.557-.047-1.104-.103-1.652-.15 1.095.866 2.51 1.434 3.237 2.69-1.368-.959-2.718-1.973-4.265-2.624.726.558 1.491 1.08 2.132 1.73-1.01-.586-2.02-1.19-3.151-1.516 1.217 1.116 2.812 1.675 4.293 2.363-2.887-.26-5.086-2.335-7.728-3.294.16-.037.471-.102.632-.139-.529-.316-1.029-.651-1.472-1.08zm-4.55 4.549c1.859.168 3.774-.046 5.567.54.83.26 1.595.716 2.256 1.274-1.312-.576-2.662-1.134-4.105-1.218.594.353 1.264.605 1.746 1.125-1-.288-2.02-.586-3.077-.548 1.293.604 2.897.893 3.718 2.167-2.057-1.479-4.775-.735-7.03-1.637.99-.019 1.982-.028 2.972-.149-1.226-.242-2.52-.353-3.595-1.033 1.33.289 2.708.512 4.067.242-.858-.158-1.717-.39-2.52-.763zm92.727 28.944l.188.223c1.161.01 2.312 0 3.473 0 .076-.074.142-.148.217-.223 0 .363 0 .717.01 1.07-.123-.084-.217-.223-.378-.205-.387-.018-.764 0-1.151 0-.01.95-.01 1.898 0 2.847-.028.168.123.28.217.391h-1.283c.084-.12.226-.223.207-.39.01-.95-.009-1.899.01-2.838-.434.009-.869-.047-1.293.018-.057.047-.17.14-.236.186.009-.353.009-.716.019-1.079zm4.227.242a46.11 46.11 0 011.604 0c-.047.056-.141.177-.189.232.359.726.755 1.433 1.133 2.14.368-.725.83-1.405 1.151-2.158-.047-.056-.132-.177-.179-.233.509.019 1.019.01 1.529.01v.055l-.18.177c-.009 1.024 0 2.047-.009 3.07-.028.214.066.41.189.577-.416 0-.831-.009-1.246.01.075-.121.198-.242.198-.4.019-.763 0-1.517 0-2.28-.509.884-1.01 1.777-1.529 2.661-.481-.884-.962-1.777-1.443-2.66 0 .753-.019 1.516 0 2.279-.01.167.122.279.207.4a13.083 13.083 0 00-1.208 0c.113-.14.236-.307.208-.493v-3.173c-.057-.056-.179-.158-.236-.214zM47.307 53.268c.01-1.48-.01-2.95.01-4.429.131.01.263.01.386.019.123.279.217.623.538.735.33.093.689.046 1.029.055h13.87c.218-.009.453-.018.623-.158.19-.167.255-.418.359-.642.132 0 .264-.009.396-.009.01 1.47 0 2.95 0 4.42h-.396c-.094-.215-.17-.466-.35-.624-.197-.167-.48-.158-.726-.158H57.81c-.01 4.261 0 8.522 0 12.783.01.251 0 .521.16.735.16.196.425.27.66.372v.382h-5.416v-.382c.217-.093.453-.158.623-.335.18-.176.18-.446.189-.679V52.477h-5.03c-.264.01-.547-.019-.802.084-.283.13-.359.446-.472.697-.151 0-.283 0-.415.01zm21.516-2.68c1.217-.781 2.68-1.098 4.114-1.19 1.802-.122 3.624.074 5.332.641 1.028.317 2 .763 3.02 1.117.32.14.613-.075.877-.233.113.065.217.121.33.186-.688 1.34-1.377 2.67-2.057 4.01-.113-.056-.226-.12-.34-.177.057-.558-.424-.93-.849-1.2-1.859-1.246-4.2-1.665-6.407-1.414-.86.112-1.784.344-2.388 1.005-.425.428-.623 1.126-.33 1.675.264.483.83.697 1.35.8 2.028.362 4.104.39 6.133.772 1.18.214 2.369.623 3.303 1.395 1.095.95 1.651 2.429 1.557 3.852-.075 1.507-.925 2.95-2.199 3.787-.887.586-1.925.92-2.963 1.153-2.114.447-4.322.373-6.407-.13-1.36-.307-2.624-.893-3.888-1.451-.283-.168-.557.046-.793.195-.123-.065-.236-.12-.359-.186A569.056 569.056 0 0067.737 61c.114.056.236.121.35.186-.01.475.207.93.594 1.228.755.624 1.69.968 2.614 1.256 1.614.484 3.369.68 5.03.298.85-.205 1.736-.595 2.208-1.368.32-.493.415-1.218 0-1.693-.415-.465-1.085-.567-1.67-.68-2.02-.334-4.077-.39-6.097-.753-1.311-.27-2.66-.837-3.434-1.953-.84-1.126-1-2.634-.69-3.964.274-1.247 1.124-2.298 2.18-2.968zm24.554-1.163c2.293-.195 4.69.066 6.738 1.145 1.604.865 2.935 2.233 3.709 3.87.67 1.433.887 3.052.774 4.615-.161 1.981-1.076 3.87-2.473 5.303-1.208 1.246-2.84 2.047-4.548 2.4-1.897.382-3.87.391-5.766.01-2.03-.41-3.935-1.48-5.21-3.09-1.981-2.428-2.443-5.926-1.273-8.81.538-1.312 1.387-2.512 2.491-3.414 1.576-1.256 3.577-1.861 5.558-2.029zm.378 2.875c-1.218.13-2.407.642-3.303 1.47a5.495 5.495 0 00-1.793 3.284c-.246 1.582-.01 3.294.944 4.615.849 1.19 2.16 2.066 3.614 2.335 1.321.242 2.727.177 3.992-.316a5.654 5.654 0 002.547-2.056c1.076-1.563 1.274-3.61.737-5.396-.331-1.126-1.067-2.122-2.03-2.81-1.33-.986-3.076-1.303-4.708-1.126zM0 49.658h6.02v.381c-.31.121-.717.242-.783.623-.047.41.133.81.274 1.191 1.123 2.931 2.227 5.871 3.35 8.811 1.265-3.089 2.52-6.187 3.784-9.276.095-.27.236-.567.114-.846-.133-.317-.5-.391-.793-.503v-.39c2.104.009 4.2 0 6.304.009-.01.13-.01.25-.02.381-.292.13-.65.233-.792.54-.141.288 0 .605.094.893 1.199 3.06 2.397 6.131 3.596 9.192 1.16-3.024 2.321-6.057 3.482-9.08.104-.317.245-.661.16-.996-.132-.353-.556-.437-.868-.549-.01-.13-.01-.26-.019-.381 1.992 0 3.992-.019 5.983.009l-.028.381c-.34.13-.727.242-.934.559-.265.39-.425.837-.604 1.265-1.614 4.084-3.218 8.169-4.832 12.253-.15.382-.311.772-.406 1.172-.047.224-.075.475.076.67.18.251.5.307.774.4 0 .13.01.251.01.382h-5.654v-.372c.302-.103.68-.186.821-.512.19-.419-.075-.856-.226-1.256-1.321-3.294-2.605-6.596-3.926-9.89-1.415 3.508-2.812 7.015-4.227 10.523-.066.195-.114.418.009.604.18.298.547.391.85.521 0 .13.009.251.009.382H6.02v-.372c.273-.121.622-.205.764-.493.151-.28.047-.596-.038-.866-.17-.493-.377-.977-.566-1.47L1.566 51.825c-.188-.446-.358-.92-.679-1.302-.217-.27-.576-.363-.887-.493v-.372zm35.274-.01c2.048.01 4.096 0 6.144 0v.391c-.274.121-.604.233-.708.54-.113.363.057.735.217 1.06 2.152 4.29 4.303 8.588 6.464 12.877.246.484.472.986.85 1.386.226.251.566.354.877.456v.381h-6.37v-.381c.283-.093.633-.168.765-.465.15-.326.01-.68-.123-.977-.406-.847-.84-1.684-1.246-2.53-2.623-.02-5.246 0-7.86-.01l-.048.028c-.386.828-.802 1.637-1.189 2.465-.132.298-.283.652-.141.977.15.298.49.391.783.503 0 .13.01.26.01.39H27.96v-.39c.274-.084.557-.159.764-.354.246-.233.397-.54.548-.837 2.151-4.429 4.303-8.848 6.454-13.277.17-.381.378-.81.274-1.228-.094-.335-.434-.474-.717-.623-.028-.121-.019-.251-.01-.382zm.076 10.402h5.671c-.943-2.028-1.868-4.056-2.812-6.085-.962 2.029-1.906 4.057-2.86 6.085zm72.011-10.392h5.898c0 .12.01.251.01.372-.198.112-.463.195-.529.437-.113.363.18.68.416.922 3.161 3.228 6.313 6.484 9.483 9.703V51.12c-.009-.233 0-.475-.132-.67-.16-.224-.443-.298-.679-.391-.01-.13-.01-.27-.01-.4h5.106c-.01.13-.01.27-.01.4-.264.102-.575.186-.707.456-.133.279-.095.595-.095.893v13.956c0 .242.019.511.208.688.17.158.406.223.613.317v.39h-5.464c0-.12-.009-.251-.009-.372.245-.102.566-.242.538-.558-.066-.335-.349-.577-.566-.819-3.256-3.321-6.521-6.633-9.777-9.955v10.318c0 .223.019.465.17.642.16.186.415.251.642.344 0 .13.009.26.009.4h-5.105v-.381c.255-.112.557-.186.708-.428.132-.233.103-.512.113-.763-.01-4.773.009-9.555-.01-14.328.029-.474-.443-.651-.792-.819a2.78 2.78 0 01-.029-.381zm29.19 0h8.87c1.69 0 3.416.019 5.058.493a6.94 6.94 0 013.822 2.921c.878 1.387 1.274 3.033 1.331 4.662.066 1.814-.217 3.703-1.142 5.303-.868 1.488-2.284 2.68-3.954 3.19-1.887.596-3.897.522-5.86.522h-8.116v-.39c.397-.122.84-.364.812-.829.019-4.8 0-9.601.009-14.411-.009-.233 0-.484-.141-.68-.161-.223-.444-.288-.68-.39-.009-.13-.009-.26-.009-.391zm4.605 2.819v11.462h4.275c1.066.01 2.161-.018 3.199-.325a4.06 4.06 0 001.972-1.34c.783-.968 1.076-2.215 1.151-3.424.066-1.284-.037-2.614-.594-3.796-.481-1.023-1.378-1.88-2.482-2.224-.925-.297-1.906-.344-2.869-.344-1.557-.009-3.104-.009-4.652-.009zm32.706-2.819c1.812-.019 3.615 0 5.427-.01v.4c-.246.103-.529.168-.68.4-.132.196-.132.447-.132.67v8.839c0 1.2.038 2.41-.255 3.582a3.752 3.752 0 01-1.01 1.805c-.896.893-2.132 1.386-3.378 1.582a11.749 11.749 0 01-3.076.046c-1.369-.177-2.661-.68-4.002-.977-.283-.056-.566-.112-.849-.093-.255.019-.462.195-.67.326l-.368-.14c.538-1.442 1.085-2.884 1.623-4.326.123.046.246.084.368.13-.056.456.17.884.548 1.135.802.54 1.764.791 2.708.977 1.019.168 2.095.223 3.086-.12.708-.243 1.274-.866 1.396-1.601.161-.893.085-1.805.104-2.708V51.11c-.009-.242 0-.512-.16-.707-.161-.195-.425-.26-.642-.363-.028-.12-.028-.251-.038-.381zM160.368 62.99c.585-.12 1.236 0 1.708.382.529.4.84 1.05.802 1.712-.009.883-.689 1.674-1.538 1.907a2.195 2.195 0 01-1.34-.084c-.783-.326-1.34-1.154-1.274-2 0-.921.736-1.75 1.642-1.917zm23.696 0c.632-.13 1.321.019 1.802.447.501.418.774 1.079.718 1.72-.057 1.034-1.038 1.918-2.086 1.89-.972.028-1.878-.745-2.038-1.684-.246-1.052.528-2.178 1.604-2.373zM29.707 69.075c2.52-.047 5.04-.01 7.559-.019h104.559c5.03.01 10.06-.019 15.09.019-.548.14-1.114.232-1.671.344-4.293.847-8.597 1.693-12.89 2.54H45.079c-3.227-.614-6.464-1.21-9.7-1.814-1.888-.363-3.794-.67-5.672-1.07z"/></g><defs><clipPath id="clip0_182_78"><path fill="#fff" d="M0 0h191v72H0z"/></clipPath></defs></svg>