<svg width="76" height="76" fill="none" xmlns="http://www.w3.org/2000/svg"><path d="M37.458 36.61c5.03 0 9.385-1.804 12.944-5.363 3.557-3.559 5.362-7.913 5.362-12.943 0-5.028-1.804-9.383-5.363-12.942C46.84 1.804 42.487 0 37.458 0c-5.03 0-9.384 1.804-12.942 5.362-3.558 3.559-5.363 7.913-5.363 12.942 0 5.03 1.805 9.385 5.363 12.943 3.56 3.558 7.914 5.362 12.942 5.362zm-9.792-28.1c2.73-2.73 5.933-4.057 9.792-4.057 3.86 0 7.063 1.327 9.794 4.057 2.73 2.731 4.058 5.935 4.058 9.793 0 3.86-1.328 7.063-4.058 9.794-2.731 2.73-5.935 4.058-9.794 4.058-3.858 0-7.06-1.328-9.792-4.058-2.731-2.73-4.06-5.934-4.06-9.794 0-3.858 1.329-7.062 4.06-9.793zm41.822 49.93a45.2 45.2 0 00-.616-4.802 37.854 37.854 0 00-1.181-4.828 23.85 23.85 0 00-1.985-4.503c-.857-1.508-1.863-2.82-2.993-3.9-1.181-1.13-2.627-2.04-4.3-2.702-1.666-.66-3.513-.993-5.488-.993-.776 0-1.526.318-2.975 1.261-.892.582-1.935 1.254-3.1 1.998-.995.635-2.344 1.229-4.01 1.767a15.925 15.925 0 01-4.904.793c-1.629 0-3.279-.267-4.905-.793-1.664-.537-3.014-1.132-4.007-1.766a428.661 428.661 0 01-3.102-2c-1.448-.943-2.199-1.261-2.974-1.261-1.977 0-3.823.334-5.489.994-1.67.662-3.117 1.57-4.3 2.702-1.13 1.08-2.136 2.393-2.992 3.9a23.894 23.894 0 00-1.984 4.503 37.927 37.927 0 00-1.18 4.828 44.9 44.9 0 00-.617 4.804 65.038 65.038 0 00-.152 4.488c0 3.967 1.262 7.179 3.748 9.547C12.44 74.815 15.688 76 19.641 76h36.594c3.952 0 7.201-1.185 9.658-3.523 2.487-2.367 3.748-5.58 3.748-9.548 0-1.531-.052-3.042-.153-4.489zm-6.666 10.81c-1.623 1.545-3.778 2.296-6.587 2.296H19.64c-2.81 0-4.965-.75-6.588-2.295-1.591-1.515-2.365-3.583-2.365-6.321 0-1.424.047-2.83.141-4.18.092-1.325.279-2.78.557-4.325.274-1.527.623-2.96 1.038-4.257a19.455 19.455 0 011.616-3.661c.643-1.131 1.382-2.101 2.199-2.883.764-.73 1.726-1.33 2.86-1.778 1.05-.415 2.228-.642 3.508-.677.155.083.433.242.883.535a432.46 432.46 0 003.138 2.022c1.315.839 3.01 1.596 5.033 2.25a20.38 20.38 0 006.275 1.008c2.095 0 4.206-.34 6.275-1.008 2.026-.654 3.72-1.411 5.036-2.25a406.37 406.37 0 003.135-2.022c.45-.293.728-.452.884-.535 1.28.035 2.459.262 3.508.677 1.134.449 2.096 1.048 2.86 1.778.817.781 1.556 1.751 2.2 2.883a19.394 19.394 0 011.615 3.66 33.381 33.381 0 011.04 4.257c.277 1.549.465 3.004.556 4.326v.002a60.2 60.2 0 01.143 4.178c0 2.738-.774 4.806-2.366 6.32z" fill="#CACACA"/></svg>